<svg id="レイヤー_1" data-name="レイヤー 1" xmlns="http://www.w3.org/2000/svg" viewBox="0 0 500 500"><defs><style>.cls-1{fill:#102050;}.cls-2{fill:#fff;}</style></defs><rect class="cls-1" width="500" height="500"/><circle class="cls-2" cx="245" cy="97" r="26"/><path class="cls-2" d="M249.83,425a174.32,174.32,0,0,1-59.68-10.56C101.09,382,54.24,284.4,83.86,195a5,5,0,0,1,6.47-3.14l37.61,13.69a5,5,0,0,1,3,6.25,124.9,124.9,0,1,0,166.3-77.54,5,5,0,0,1-2.84-6.35l13.69-37.6a5,5,0,0,1,6.55-3,175.27,175.27,0,0,1,99.78,222.47C388.61,380.84,321.33,425,249.83,425Z"/><rect class="cls-2" x="170" y="225" width="160" height="50" rx="5" transform="translate(-82.23 129.08) rotate(-25)"/></svg>