<svg id="レイヤー_1" data-name="レイヤー 1" xmlns="http://www.w3.org/2000/svg" viewBox="0 0 350.06 354.01"><defs><style>.cls-1{fill:#fff;}</style></defs><circle class="cls-1" cx="170.01" cy="26" r="26"/><path class="cls-1" d="M249.83,425a174.32,174.32,0,0,1-59.68-10.56C101.09,382,54.24,284.4,83.86,195a5,5,0,0,1,6.47-3.14l37.61,13.69a5,5,0,0,1,3,6.25,124.9,124.9,0,1,0,166.3-77.54,5,5,0,0,1-2.84-6.35l13.69-37.6a5,5,0,0,1,6.55-3,175.27,175.27,0,0,1,99.78,222.47C388.61,380.84,321.33,425,249.83,425Z" transform="translate(-74.99 -71)"/><rect class="cls-1" x="170" y="225" width="160" height="50" rx="5" transform="translate(-157.22 58.08) rotate(-25)"/></svg>